<svg width="12" height="10" viewBox="0 0 12 10" fill="none" xmlns="http://www.w3.org/2000/svg">
<path d="M7.131 0.36922C7.189 0.42572 7.437 0.63906 7.641 0.8378C8.924 2.00292 11.024 5.0424 11.665 6.6332C11.768 6.8748 11.986 7.4856 12 7.812C12 8.1247 11.928 8.4228 11.782 8.7073C11.578 9.0619 11.257 9.3463 10.878 9.5022C10.615 9.6025 9.828 9.7584 9.814 9.7584C8.953 9.9143 7.554 10 6.008 10C4.535 10 3.193 9.9143 2.319 9.7867C2.305 9.772 1.327 9.6162 0.992 9.4457C0.38 9.133 0 8.5222 0 7.8685V7.812C0.015 7.3863 0.395 6.491 0.409 6.491C1.051 4.9859 3.048 2.01656 4.375 0.82319C4.375 0.82319 4.716 0.48709 4.929 0.34096C5.235 0.11301 5.614 0 5.993 0C6.416 0 6.81 0.12762 7.131 0.36922Z" fill="white"/>
</svg>
